<svg xmlns="http://www.w3.org/2000/svg" xmlns:xlink="http://www.w3.org/1999/xlink" version="1.1" id="Layer_1" x="0px"
     y="0px" enable-background="new 0 0 400 400" xml:space="preserve" viewBox="21.82 100.68 370.63 164.68">
<path fill="#000000" opacity="1.000000" stroke="none"
      d=" M249.095047,257.701843   C255.846542,258.994904 258.652985,255.883377 260.645752,250.181335   C264.477783,239.216431 269.032593,228.504120 273.402039,217.396149   C239.212585,214.944427 205.287262,212.511658 170.565781,210.021790   C175.117050,199.482544 182.907272,194.750916 192.589813,192.756317   C204.691360,190.263397 216.808273,192.940155 228.909668,193.286957   C245.206909,193.753983 261.487091,194.837616 277.771210,195.719193   C280.425476,195.862885 282.215179,195.056702 283.224762,192.460754   C287.940735,180.334518 295.164154,169.484436 300.908691,157.880707   C303.802521,152.035278 303.320923,150.984360 297.249298,148.966614   C284.394928,144.694809 278.664124,130.318115 284.485138,116.945625   C292.055084,99.555252 313.858215,95.076202 325.334961,108.553749   C332.347595,116.788925 332.895020,129.567383 326.418884,139.249374   C322.717316,144.783295 318.673859,150.088013 314.805206,155.510834   C305.926025,167.957245 301.832886,181.950287 301.059052,197.112915   C300.924896,199.741409 301.938141,200.548050 303.979187,201.415405   C319.049530,207.819534 334.483185,208.751205 350.405121,205.199203   C357.482086,203.620422 364.531342,201.202301 372.014832,202.594070   C382.613251,204.565109 390.705444,212.604126 392.208405,222.748550   C393.713074,232.904434 387.946289,243.316544 378.155151,248.122208   C360.621277,256.728088 341.908508,245.873444 342.683838,227.546539   C343.093567,217.861938 343.095673,217.975906 333.384155,218.157166   C321.820831,218.373032 310.303833,220.165146 298.714905,219.217682   C296.326263,219.022385 295.247192,219.888397 294.355286,222.112503   C289.398773,234.472244 284.129303,246.707352 279.245789,259.095032   C277.753967,262.879211 275.803528,264.598602 271.540009,264.392151   C264.226318,264.038025 256.883789,264.294586 249.553604,264.254028   C247.852371,264.244598 246.092987,264.118164 245.832047,261.852234   C245.584579,259.703339 245.687195,257.733246 249.095047,257.701843  M292.129486,121.770721   C289.978546,130.737701 294.600128,139.935501 302.450043,142.310547   C310.016876,144.599930 318.124146,139.795593 321.026276,131.302460   C324.196655,122.024055 320.677948,113.303474 312.480164,110.122581   C305.030792,107.232094 296.494659,111.846680 292.129486,121.770721  M356.474091,238.078674   C357.716095,238.901581 358.867859,239.935547 360.215363,240.511719   C366.828461,243.339386 373.040436,242.180618 378.326691,237.608810   C382.893188,233.659439 384.842194,228.494858 382.984436,222.372528   C381.088959,216.125961 375.517365,211.835983 368.589996,211.150574   C361.659973,210.464905 355.764069,212.626389 352.583801,218.831894   C349.139252,225.553116 350.782074,232.053833 356.474091,238.078674  z"/>
  <path fill="#000000" opacity="1.000000" stroke="none"
        d=" M207.375336,232.444122   C209.640350,221.928543 212.829636,220.209198 224.124542,223.525696   C222.720596,228.420837 221.342178,233.337921 219.898224,238.235672   C217.733444,245.578415 215.418610,252.878830 213.380920,260.256165   C212.523621,263.359985 210.869949,264.402649 207.684433,264.429749   C197.364059,264.517487 197.367615,264.633118 194.214691,254.671860   C192.925049,250.597366 191.621689,246.527222 189.382034,242.377411   C187.598328,248.166534 185.628891,253.907166 184.100113,259.762848   C183.173294,263.312775 181.361832,264.514618 177.735352,264.426270   C165.470062,264.127502 168.188324,265.484192 164.945358,255.096130   C162.182053,246.244629 159.584198,237.341492 155.899597,228.440994   C153.000397,238.270309 150.165466,248.119370 147.153732,257.914062   C146.460953,260.167053 146.719696,263.598053 143.726608,264.035767   C139.503738,264.653290 135.066681,265.111908 130.905624,263.656219   C129.297943,263.093842 129.208618,260.909424 128.710892,259.349152   C126.913536,253.714691 125.177856,248.060547 122.486755,242.438736   C120.691132,248.263519 118.767914,254.053177 117.150696,259.927063   C116.267105,263.136383 114.745590,264.534851 111.209763,264.433197   C98.391800,264.064728 101.491051,265.827484 97.842171,254.511581   C95.092560,245.984436 92.690941,237.345093 89.837753,227.758972   C86.763863,234.380447 85.655914,240.538132 83.676643,246.391602   C82.771324,249.069000 82.084839,251.820648 81.307999,254.541183   C78.340050,264.935028 76.693680,265.896545 65.877365,264.376434   C63.267162,264.009552 62.695358,262.331635 62.096684,260.416809   C60.224953,254.430237 58.388424,248.432693 55.574940,242.393219   C53.843819,248.035431 51.895050,253.622986 50.459675,259.339478   C49.534458,263.024200 47.850231,264.547058 43.916534,264.435089   C31.555170,264.083252 34.418362,265.705780 31.125710,255.164688   C27.862785,244.718781 24.938601,234.167068 21.815361,223.489151   C26.110853,222.062485 29.931463,222.736206 33.691349,222.695328   C36.442665,222.665390 36.642040,225.034058 37.153706,226.867554   C38.757977,232.616287 40.230324,238.401855 42.136074,245.621445   C44.490639,238.627609 46.816311,233.027679 48.216358,227.205185   C49.714817,220.973450 54.340614,223.111435 58.140751,222.563599   C61.852386,222.028519 63.002094,224.069061 63.894356,227.142868   C65.510475,232.710388 67.465530,238.179520 69.632561,244.763702   C72.375008,238.583282 73.406227,233.075256 74.637604,227.692856   C75.563492,223.645691 77.501183,222.311218 81.554520,222.529922   C87.368423,222.843628 93.218735,222.743240 99.041748,222.517014   C101.939262,222.404449 103.198708,223.490219 103.857788,226.210129   C105.263519,232.011307 106.925674,237.750366 108.820290,244.764435   C111.851631,238.764130 113.513924,233.457336 114.760780,228.162231   C115.991867,222.934097 119.156639,222.620178 123.545990,222.458725   C128.140137,222.289749 130.106583,224.157364 131.227936,228.292145   C132.693726,233.696930 134.620163,238.976791 136.814835,245.749786   C138.730484,238.573547 140.390289,232.880600 141.735199,227.114212   C142.501663,223.827896 144.024841,222.392929 147.568451,222.552719   C153.387772,222.815155 159.241196,222.849899 165.054749,222.524719   C168.895157,222.309906 170.386398,224.010834 171.170547,227.412430   C172.494675,233.156525 174.081055,238.840149 176.512390,244.557541   C178.423447,238.592255 180.644196,232.703400 182.141922,226.636078   C183.227020,222.240280 186.119003,222.425690 189.350311,222.602844   C192.612671,222.781693 196.293716,221.378128 197.516357,226.620087   C198.882141,232.475754 201.166229,238.117218 204.225342,243.706207   C205.232590,240.082062 206.239853,236.457901 207.375336,232.444122  z"/>
  <path fill="#000000" opacity="1.000000" stroke="none"
        d=" M233.626068,248.783752   C238.456711,250.257965 240.595810,253.387924 240.203979,257.911713   C239.866791,261.804321 237.435806,264.267242 233.633545,265.139069   C228.879791,266.229095 224.353073,263.109467 223.699432,258.438599   C222.857422,252.421677 226.240051,248.969620 233.626068,248.783752  z"/>
</svg>
